<?xml version="1.0" encoding="UTF-8"?>
<svg width="24px" height="24px" viewBox="0 0 24 24" version="1.1" xmlns="http://www.w3.org/2000/svg">
    <g stroke="none" stroke-width="1" fill="#b8860b" fill-rule="evenodd">
        <path d="M12,2 C16.418,2 20,5.582 20,10 C20,12.7 18.3,15 16,16.5 L16,20 C16,21.1 15.1,22 14,22 L10,22 C8.9,22 8,21.1 8,20 L8,16.5 C5.7,15 4,12.7 4,10 C4,5.582 7.582,2 12,2 Z M12,4 C8.686,4 6,6.686 6,10 C6,12.6 8.1,14.7 10.5,14.9 L10.5,20 L13.5,20 L13.5,14.9 C15.9,14.7 18,12.6 18,10 C18,6.686 15.314,4 12,4 Z M9,9 C9.55228,9 10,9.44772 10,10 C10,10.5523 9.55228,11 9,11 C8.44772,11 8,10.5523 8,10 C8,9.44772 8.44772,9 9,9 Z M15,9 C15.5523,9 16,9.44772 16,10 C16,10.5523 15.5523,11 15,11 C14.4477,11 14,10.5523 14,10 C14,9.44772 14.4477,9 15,9 Z" fill-rule="nonzero"></path>
    </g>
</svg>
